<mxfile host="Electron" modified="2024-12-09T07:58:30.408Z" agent="Mozilla/5.0 (Windows NT 10.0; Win64; x64) AppleWebKit/537.36 (KHTML, like Gecko) draw.io/24.2.5 Chrome/120.0.6099.109 Electron/28.1.0 Safari/537.36" etag="80Qt-b0r7cfAN5ZdtOCc" version="24.2.5" type="device">
  <diagram name="PÃ¡gina-1" id="yd9LIHethROm3r6DKBnR">
    <mxGraphModel dx="1067" dy="516" grid="1" gridSize="10" guides="1" tooltips="1" connect="1" arrows="1" fold="1" page="1" pageScale="1" pageWidth="2500" pageHeight="5000" math="0" shadow="0">
      <root>
        <mxCell id="0" />
        <mxCell id="1" parent="0" />
        <mxCell id="tNGQDIPSwEXz_14fNPYn-53" value="" style="shape=tableRow;horizontal=0;startSize=0;swimlaneHead=0;swimlaneBody=0;strokeColor=inherit;top=0;left=0;bottom=0;right=0;collapsible=0;dropTarget=0;fillColor=none;points=[[0,0.5],[1,0.5]];portConstraint=eastwest;fontSize=16;" vertex="1" parent="1">
          <mxGeometry x="120" y="260" width="180" height="40" as="geometry" />
        </mxCell>
        <mxCell id="tNGQDIPSwEXz_14fNPYn-54" value="" style="shape=partialRectangle;html=1;whiteSpace=wrap;connectable=0;strokeColor=inherit;overflow=hidden;fillColor=none;top=0;left=0;bottom=0;right=0;pointerEvents=1;fontSize=16;" vertex="1" parent="tNGQDIPSwEXz_14fNPYn-53">
          <mxGeometry width="30" height="40" as="geometry">
            <mxRectangle width="30" height="40" as="alternateBounds" />
          </mxGeometry>
        </mxCell>
        <mxCell id="tNGQDIPSwEXz_14fNPYn-55" value="" style="shape=partialRectangle;html=1;whiteSpace=wrap;connectable=0;strokeColor=inherit;overflow=hidden;fillColor=none;top=0;left=0;bottom=0;right=0;pointerEvents=1;fontSize=16;" vertex="1" parent="tNGQDIPSwEXz_14fNPYn-53">
          <mxGeometry x="30" width="90" height="40" as="geometry">
            <mxRectangle width="90" height="40" as="alternateBounds" />
          </mxGeometry>
        </mxCell>
        <mxCell id="tNGQDIPSwEXz_14fNPYn-56" value="" style="shape=partialRectangle;html=1;whiteSpace=wrap;connectable=0;strokeColor=inherit;overflow=hidden;fillColor=none;top=0;left=0;bottom=0;right=0;pointerEvents=1;fontSize=16;" vertex="1" parent="tNGQDIPSwEXz_14fNPYn-53">
          <mxGeometry x="120" width="60" height="40" as="geometry">
            <mxRectangle width="60" height="40" as="alternateBounds" />
          </mxGeometry>
        </mxCell>
        <mxCell id="tNGQDIPSwEXz_14fNPYn-219" value="" style="shape=image;verticalLabelPosition=bottom;labelBackgroundColor=default;verticalAlign=top;aspect=fixed;imageAspect=0;image=data:image/png,iVBORw0KGgoAAAANSUhEUgAAAMwAAABXCAYAAABIg6pyAAAAAXNSR0IArs4c6QAAAARnQU1BAACxjwv8YQUAAAAJcEhZcwAADsMAAA7DAcdvqGQAAAtVSURBVHhe7Z09duo6EICHt5HcAlLksAKzAkiTijYdKaG5HSUdDZS4S0uV5poVkBVwKGKKm5X4zUiyLduSbPOTC3i+czhgy/rxSGNrhEZqRQjk+P7+hoeHB3XEVOWScuM6+Vls8m79/fu3oDC/fv1SvximuaBuqF8pxjdMq9UCw2mGaQw2HfhPfTMMUwFWGIapASsMw9SAFYZhasAKY+UAm7eeMP7Ep/cGm4MKYhoLK4yFzVsHBrshhFEEURRC0PVh8LpENWKaDA8rmzgsoddZwzDcwritzsEG3loDgCCCVV+dYu4WHlauQ7iHT+jCY6IsRB9WKMBUWQ6wtHbZMKzXgjc8kV7Tg7el9n46oALiNcUwUkyKqw4JUuAWpi8PZNpLFV9deFi+4TUqPSyLnpWI4+heuuMyOqwwBg5fOwDvCTrquAg12g6sn6aqyxZBONwVumz+bA6Pv7ciPAq64E/maaN/HcBuGMqwcAow6WSVpAR//QEv7xifNBgV6nUCMFVliTC59XyjylJSVmdcpgAKqYDldGMIF14E3iLCBmYmXEQejKJAHUqCaIRyG4mTYbTw4t8xFO5FC0rUGD9GT0eRud6WNkTeIiiWubSsjrgNxqYD/IYx0H7sAnzuIVTHCQfXc7cDT576WYbo8p0T7C6GAQz3M3it1K3Sy1o3brNhhTHReQIPdvCVaThoM3Rc3aYQ9lW1QKR/Ztp9GK+2sKUuF/XwnCN6ubLWittsWGFMtMcwHX2KhiONY/pPZga+t4DfZPS3n2Ho+TDTHsWHpRZeRiG+MuSFMsqn/y7RVsx7vna/kWhQoJc2cjFWEb8hy8rqissUUV2zDJbTDSOMghHaMigL8fHQDsh08tGWsIaX2DBEiMd4TRzf0y8ORmh3pOkugjIbhqLIsniUpof5ZMJdZS2L20xIHib4fxiGMWDTAe6SMUwNWGEYpgasMAxTA/bpZxgL7NN/YS4pN66Tn4WNfoY5A6wwDFMDVhiGqQErDMPUoJLCHDZL4QzF1GPzppyy4g85bqkwgsJ7+tRg4SiWcx6zUFonIq1sfszpVFKY8GMC/kf16XjkwbdkBRN4C+UkFoWwoHUBtImOWcipbAKA11dxga5bJ8x5qKQw/RVWeA1H9nDvw/pLHTCKNoxfRtaZwLToxqQbwDZdRMBJ3TphzkMlhcl2HeKp6Phd8FeXYQMf28Wkg+e5S1CFw7KHMhtBUEMBTN25ZI0AcgKr+vKxri1A6HUs0007Dq52oHCmfZscbfSb/dXxKbqNIMAHqeyKrICfgTHYsD7wSZJfK2A/Fz71i/AUWWHamEiyRsD2Nzxil63cn43i2dYWIIX4t+sWXCV4MwXyp1EBIlQAdVTu65G9vjmY5Ebnkg/5oagwQsppoXzq3fJy1onJb9+5boDCdU3pWgAl7aBK/ldMXt4xR79hmGrIN618Qkdb01vkGVbh4rSn77FrBNSO9y/XLbgOWGGugfYY3vFx7Q+OtPmOXSOgdrx/vG7BFcAKcyW0x1u0/VzDzg4MawRs5hVsGNfaAhddt+B2uYjC9H/LLgaPktWjvwpg9DmB19qjSW0Yvy+guyaZ02jWHL5eFhWe8BQvSOO10MjvBup/IBrACWG4f1VhLeisuxC8jzGkCq60bxee3n9GLik3rpOfxSZvVpgzcp0KQ/+FzGCnjlK6MHxfaYutMzqsMD/AdSoMcww2ebPRzzA1YJ9+hrHAPv0Xhrtk9wN3yRjmDLDCMEwNWGEYpgasMAxTgytSmMvNNSIHLT1dff/93lt27pa+QWovUxgqX6+hu3NtihvVNpQGvGE2MJ904SWew7R5g4HfhSCkKfchDHcT6MQt4UAbpO5gSGFhAF1/oDWSNjwPASZzbjVN5v4VZvMB/ugl8UPZfPjgLX5DX0wJISVIpyge/qzhczSV00XafSAXfP8jVZA2aoznf/CE0gZTojCGbpK+fE/iRy67ONnujYqb20++3M8b41l9xOvnJxTkKXUKpsUj0oUmDvBn/ZmEh/v0N9GRe+eleagp65oO/SPienHIiq4p88ePZaXClwfamtCWHvKVvT4Vg1n2hbpOC2Dn2tcYiAzop8UW3Jofanost4FLg/Iuq/JYbg8Xu9/Kc6lrbdHllbb7TraTC0ZYltjN9fj80mtSYvdh2ipPXi2vzbgKU/657cdd7tcWcZ6FbNr6vapTeVmJe0m3Es9upR7HT2Ut5UHyTU5o6cl60uOL6xPB6uVJcszKU9S1tmWhEVOcbPsov6cymZjSLmKry1KFyfpmy0xNmYQoqGxjMlzr9PM2pW0XcqX8HPElesXnBEpcucJY7/UIf/z8gzGbhqFxGRpjJtxQBpfsBK72ccQ9yfDj1hiw1WW5DaN3Qw5/YP05SgzoAxrQNKLUw1fjfD6HWXEOeZYT/bxr51dKWzi7SbukDbQ9v87h6+QMroga/vhVKHNBFnXtw6zXw/qSH1p+y8kNrDFQwehvw3g6EsavNIqVAU0jSgOAKSrjdruC1WoF01yDK3CKn/cx+RWI+7nqMAfZLJ/7dEEvsmmg+4gSuAdq+ONXoawBiroewXS7xfqSH3xAuxcqvIE1BqqNkvVfYIRP4TmWbpSMz+ZAg4qW3XJyTj/vKvmJJ9AnpDog3yL+LB4sUL7v6iEgR8Fm8r8WlX72fg9AL53u45Wr0Kn++BZ29NAUv1BuUjj2tdSSnkla15uyJYRd7ePUezpT26s4rExDrD74ftodo5VOpqMdDEQXCV+5c4An7FC6OcHP+8j8SEF2X6mQ+6sQgu4aOir/GSwgjAsgVm/pwrqDYZ0B7Eb5stETzQNtIO1KOdUf34QHw5cvmItRpg4MdprcjMi6hlla17P9EzzL8XwLrvZx6j2d0PY07n96P9o9rdkThNtTGouChtRfAd4taV1SbndVJzeATd4N8IehV69o5Sf7r9N6xrOn0NoPZ4WpAv0Xcv1rDDRYYZDNEpbwDGNnd6AM+lPvD3RW9jcVK8z90GyF+SFYYe4Hq8KwTz/DmGGf/gvDb5j7wSbvisPKDMMQrDAMUwNWGIapASsMw9TgihTmhHllJWR9+jfCP52Muvij53mzPv00C4G3F7k4DXjD5Hz6BSMIIrWNHn6S+UQ0I5p9+hkH968wOZ9+OHzBLr+TsYJ9+pkyShTG0E3SX/34W/pISx/qW/Dpl6zVrFv8aFvk3Y5PP5LIgu7BsC9/Xs7atHq92yl9+VUAUVo/Bpxx9PrEz7/wwz8n2CUpoJ++O5/+OE1xiYojLpC/b8lFOS2HcrXWZaWH6/70eVddvEfrugYlfu8SV5w47Gf88M+JrS5LFSYrYHkDpgLfpk8/kihFrnKIa1UYkxz1c4bwtNyy0emNOMFZPxZccYxhRYWy1tkx5TkTtrost2H0bsjd+fQrPvcQolF/Mz79ZXIU4b7Fn74PqzCA4X4Gr6qLlPRyjqmf2nFue6//CkZ/+/59+tUgwM349JfJscyfvt2H8QrP47lwCjB5VXbcMfVTO85t7/VfbZTsjnz6aaVL8umXhifmP/PBGz4LpbgZn36DHDP78ie9Ai089qfHB09PG+gQdyLesHRwRP244hTCKPsb3+tf9syymE5njUpJgEY4Xet5njAcF6U2BUKGG56neCJuckG5DXJMfkWbg2wfmU6cfyZ0gUZwoWwx2fLkoTiXopA29u8TOaLRvAhy/f2CnFNbLJUjxcX70W/TWj8OnHGwXjR5Zwx8Y53lZHxMec4A5WWCffrrQE9n9ulvBDZ5s09/DZrr00//hTRrr/8GKwzCPv1MTZqtMD8EK8z9YFUY9ulnGDOVffq/v7/h4eFBHTFVuaTcuE5+Fpu873+2MsOcEVYYhqkBKwzD1IAVhmEqA/A/pHJn2zEA1q0AAAAASUVORK5CYII=;" vertex="1" parent="1">
          <mxGeometry x="140" y="650" width="204" height="87" as="geometry" />
        </mxCell>
        <mxCell id="tNGQDIPSwEXz_14fNPYn-220" value="" style="shape=image;verticalLabelPosition=bottom;labelBackgroundColor=default;verticalAlign=top;aspect=fixed;imageAspect=0;image=data:image/png,iVBORw0KGgoAAAANSUhEUgAAAG4AAABWCAYAAAAucqM7AAAAAXNSR0IArs4c6QAAAARnQU1BAACxjwv8YQUAAAAJcEhZcwAADsMAAA7DAcdvqGQAAAfaSURBVHhe7Z0/duI8EMCH7yLZArbgcQJzAkhDlZbOlNCko6SjMSXu0lLRrDkBOQGPInaxOQnfjCQb29jC/2RQVr/3/Nay5BHSWCPZmp10LggIvr+/4eXlRaTUo7K+ttvSJtS2/8S5QTM6f//+jUbcr1+/xJnh2UmYyk6nA7Gk4UkhPRlTqSlGcZpiFKcpRnGaolxxh1mHTabRMZzBQeRV4wAzlDPLFRLAZijL/xm0MuIsx2er1cvFB2fgwni4we411KFlU9mF+cQG+DyDL64YqvHgOU6YtQ2aP/y3E9k3vD4bJs1reoh+iXuKmN8gVrYzRDMaCkvVL2RtggBNfFg/lt/EKg82oizPH86S1iPYzGDI7gtliYymoRfwkFSyETwbLmgqRcq/OJhG24lnIm1R2r54fqwMXrMcT5TBK44Vu8e74JhNyKA6wPZYKrw/Sop09Bt8ut+68GRYv4P1s1wuC/Pt6wVM4+9jCSxvUx5LIKm6fOdiRWURvNfCTCGpMUhPrSiOVRQepCSRd9NwIt14BlcWLxc/F6Q7V9aZyPVhuq2fPSTJCxm/h+Pjw5Z8MPlviz90KqB+bHlxgsdxCyNxvTg96FviNIteH3Kz/TN8ggur4RCG4hi7Iq8CwYGbwiGawfV6DauTyGCMYOt78HZewVSxqXzwHFcUH86f4jQLppwcmFJtWB6PcBQHPUDHeVcUKAHOb9MxwJLuxwdwu93CciDyQrojmG+xHizjLwEWUzUr6OdTXPcV3iwcIbFHNdiswLUceI8N1dP+IDoEFxJ7HEL2JHskC3n72ILkgAuIzc1qpwK46KGqI1Cxw9irDns0FK2gn3DE4SvD0UdzMxWrug70dgPwPua8IxgWvE2+YM1Wdz0Ynxzwt6HauvD6ZsNpjOaMKR/lfXgAq56Q14PVuQ+vowojrjuHpX2CMTOVaHbXAH2c1CIof7CDHsvHutCOOl6VqeE+ZltHQ0hPmsxxhjRGcZpiFKcpxudEUx66OFFZ309eaJnFicYYxWmKUZymGMVpilRxwWET23RUzz3/FMrnn7EE9G0QyxXxL7nbFiarrj9Me0gV5+8X4O6LfyKl3d+6H2+vW0D3/FMC2EwXAFg++kwpoWxbnh2p4kZb7MAivSLwzy7svkSiNnL/lMOsB4uBV3h7pmxbnh2p4pKmKXR7i/uDhP4YPI82KD8X9BVerckJNrQZaoNXQhFZZjbhZ1JoMIaugXn+LikfFoU+gqUXJ+5qDb/f+WbkxRuAu1jjD6etmAt4OEC4qWtiKwM7gTa7rD70xBXGeQ3cQtapA2WjkNObMMvHd/iNplS2VxvHXX3BO7aXzLlH5jylIHe3h8kHylY4wksrzl5ih4XWaTQBG07wVW9aS8BHLD3NaApPOKqO8X04pN+HAXbx7k+NSoM/sPu0YRmZ2S6M3p1894cU9jL8TXgfmXN3n7AwvI+KmfCqlFacau77p7zC1ncAUMGVLZHM1aEsMn8XhTyd4grRncOHY4E7rjiXNtnZTT4EJdBTcUh3fsQ5taI7+41fSwCHdYk5rqi/i0IaVRzNE2TCVK8qQ0ZbD+zPBUzjq8VCkB+KA4OdmE+Ha/ialJjj+nn+Lu1htnVKQa8DYwDvUuilXxXsYTOKS0PvYCtcK6cZwNvHBM49o7gnVZwMM+IY+inuOWCKMz4nemJGnIZQ27R9j/vXMYrTFKM4TTGK0xSjOE2RKq4JH5ImZDTBT2oLIVVcEz4kzfqhVOcntYVB73Eh1ySPRkBpfoioAxRqIrqeCikRha/AYixygZMtIwZdV8VVtsq2oGwb88PrLOwHy5AQRo2I1Z8VicIR+YnwEhx2jzhn0IU4yVAQXGCUzogXwupIhZdIykiSrq9J1LcllJEXjyUPrrhruew4LcnYL0nKKU4aLwShfKzMxmvxhyTZ2CQPU1wTbcmQgSXEaBLJTDLKyOK0ZEBtK76qvBcvhP3HdRfckw2TB345L4SyttyJx5JHBVeK4oq7Fy8k2MDKtcEenBKhLp4SZW25E48ljwp+K8UVJ40Xwv0UBx4FbVnCYDFVF3ysCZpoS8F4LHnU9lthRlOQSgo7jhNhaH8TKzG097jaIoufjn+VmKTTMmLc1Ncg7bQF56Oqq0rHia0qw4UKUWyOM9s6rVN/F53aZhSnBLV+K0ZxD8GMOCnPq7j6MMUZnxM9MSNOQ6htxd/jDE+FUZymGMVpilGcpkgV9/A4J3iE/+G+TowTwsQ5kdBsnBN+ZIfD4B+Ci8Y4IUycEwlt+WSUjXFCmDgnOKIeGeekSowTopk4J0j67/TEZVI/5P5NIFn/CaSyU6A5ikglU24HcV8IcSmx5Z4uf5+s+uja9Qj9QIRs275YsWsyirQlnuZ1X9uSTeo+5qsSbsGEeXk+KPf6TyY7Cesbcc4o0tikIBKe6tyo/H3k9SXheQ5rTJE6pLKz/EWyrqWRlcnMu1Vsbv8VqV9AbdPsdaCBGCdE1RAXpe8r4YNSUrZmikPqxjghqsY5KX1fCR+UkrL1UxxSK8YJUTXOScZ9fMGBpzV9UKSyM2hUcW3GOake44SoGueE/52e6L5OD3b4WsIXuBSI7t7fBJIhk32L2dbREKZYo7g0Mn+RLZR451eGUZymUNu0XJwYUHnG50RPEqby+/sbXl5eREo9Kutruy1tQm0zplJTjOK0BOB/OOVA83DLI7oAAAAASUVORK5CYII=;" vertex="1" parent="1">
          <mxGeometry x="461" y="450" width="110" height="86" as="geometry" />
        </mxCell>
        <mxCell id="tNGQDIPSwEXz_14fNPYn-221" value="" style="shape=image;verticalLabelPosition=bottom;labelBackgroundColor=default;verticalAlign=top;aspect=fixed;imageAspect=0;image=data:image/png,iVBORw0KGgoAAAANSUhEUgAAAGIAAAA/CAYAAAAbtR0nAAAAAXNSR0IArs4c6QAAAARnQU1BAACxjwv8YQUAAAAJcEhZcwAADsMAAA7DAcdvqGQAAAZiSURBVHhe7Zw7kuI6FIZ/7kamA7gBxQrsFUAnRKRkJoSkM0IyEgghIyUiabMCWAFFgB3MrMT3yBbGMvJD4tGqufqqVG1bRg8fnSPhH3UjIsD58+cPfv36xc9+jle2w5Q+5mn8/v07NcTHxwc/srwbwSMajQYyp5Y38g//a/lhrCEMwRrCEKwhDKGWIfajRjyRp8kdYc/z9NhjROWMCgsJsXTL8n+CpE3557Dchzw/Idwvqd3itTrU9ghnEcQrqigKsOis0XOX1LT/H9nnEEyBba8lDJhgN8F6F/Cz+miEpibGfQ84nqFe3d9EE83uCpuFg/XsNii7KzLSqsvP6vOEOYKHkSWFG+a66fCg6yNXDGd5F7rwz1zz+WUpYebehptx/1z915ARhhRSr/XT/ctM5SGFj/jeJN8d6Xt383MA57jFNy+AhXFXoy4NQ1DHd2vy0TZa/Apjvd2hvyG3jUcDezgtbNtTBLEbRwgGJ/SGYiPW2wu+Domb+yzcFU4KVN6wh9OAhwUWE3pDetg8m2Bl9TdJXaysSWuIXX+T3O93sJ7MuaGprPkWmLJ7D3Hdg9ME89JRUELzX3RwxFkaHhTqooam5E5TfA9xXpocL/J5HhUekXdG3u0CXVpEDrL3MPyIAhq/L3vM8T0q+/qZXJmS8libKF7T0X39wcKJIF6QtCchCIJMWWUk9dzfJ/alrKyyujQma0qHFdSjYAtthx/KaLVRmB2cacytMXNduDz1yCl1CfcjuCxMUAibz+eYnXiGDuEFJ2p5OxseMtSt6wlzRF0CnI/8UEb8sAuIjeRhejjgwBMbEIdxk9+gAMVsinIULejzNKBWqxWmHZ6nQfi9xdEZ4FPWFIW6XmOI5icGDo3gTBAPlzOsnQW+Mq502u35nEETK5t3vL7c03h5u8wEvV/er+G1oEUAq1oHNtqHkyO86ZjWUDUoqetFHkFL3ANNTOdhvFJgqbXtwN9kG+xg0L9gHq8oWuidFgjSZV8TnwMPp951BULlbXxg1uLltTA7t/HZ1fCI5hhTjxYOcbigMDcH2hTk63KcXNtAfZoBAz9A4WpVoS77GtwQrCEE2HeRGU2+eToYbFbQmZLqYg1hCG9cNVnKsJq1IRgZml7ZDlPDrw1NhmANYQjWEIZgDWEIaoYIl3Abj+rV6lRp5jIxhr3x1NK8c33U1aBVealHhM96MUfcXsNXaeZMRJoAdL+GYnmHrgatyksNEZzX2F74ydMo18z3oxYmHV/vFbkEXQ1alXJDkJsKOnC+52l+Xo9lUmkjFm+St5Xc1Qt15+cQLplg5MFXeXAVfdTVoJUhd08RT/PSYCLzCXKm52QkynvJUpQFc+UFTGJ0IpmqmGvWfTmsHc6CjhLifM+LnILysqj1UVZ3eZ91KTaETOdV1H6F81LdWURmCHYtTYJmfi1nEWvHsvKyqPaxqI2M+np3NcWhqUy65Chpvw/qztRZ9gSTJNXMP7EKFgCFwtqrpRp9zPNUvTtDsSHKxHwGxUol7feZunMRzXHyg69ezSV2VR/zqPZZgWJD3OnOIfbzSfEIqtJ+X6k7Z2iOD/C9mj8JVe1jngf07jwlqyamEy/Q2XKN1p3j0l/cRlANPbb7lYSKZNX0RN25gu7Kh3ecYJhd7Uip6GOeB/XuMuxrcEMo/x5heRvWEIZgDWEIVrM2BDtZG4INTYZgDWEI1hCGYA1hCKWGeJdeW8WdZk3pKtY8qldX9jEur+ZLxAcoNYSqXvtMjTqP8Bqckvytrbpe/S5NuopSQ6jqta/RqOujo1e/S5OuotQQotsnOjRz49v+6ev+5QKN+o1o6dVEsSZNSabTS9nzf2kh7vW+PQP+7O72omcgN0/JneZkwESfjWXK6yVhS265rKiCrB3s2i3dtOm4zpp6NaNOH7PnSd05OfWOZIvvTUfnn0vF7OyzkzdSedXkTVdIJYRuHx5OuLxmWhAQ54iDuHun3Y43nW+v2/91Cb+xPXqYpoU3Y02lrop329RIn2M/+VnvhMiQPDt52FQ2hJlo6NUyNDTsQhRl2L/EEISqXi1DVcMuQ9Gof48hCCW9WsaDGva67r5xCU81hKhR/wz19WoZihp2Dq9dtG+8Gvsa/Cmw5WsP8CPtHz5bQ9SGfQco2oPdx7llDaHEa8q2HqGMKX3MYzVrQxA8wv63/J8C+A/GKqbAiHLxZwAAAABJRU5ErkJggg==;" vertex="1" parent="1">
          <mxGeometry x="456.5" y="310" width="98" height="63" as="geometry" />
        </mxCell>
        <mxCell id="tNGQDIPSwEXz_14fNPYn-222" value="" style="shape=image;verticalLabelPosition=bottom;labelBackgroundColor=default;verticalAlign=top;aspect=fixed;imageAspect=0;image=data:image/png,iVBORw0KGgoAAAANSUhEUgAAAL4AAABCCAYAAADpJGz/AAAAAXNSR0IArs4c6QAAAARnQU1BAACxjwv8YQUAAAAJcEhZcwAADsMAAA7DAcdvqGQAAAnlSURBVHhe7Z2xdqpMEMcn34vkFpoixyfAJ9A0qWzTYRmb21na2WApXVqrNMEn0CfwWASLmyfxm9ldYFlZQIHE4PzO4QRYWGRmWGbX/Zu7IwKKr68vuL+/V1tMWZq0G/ukGjb7/af+MsxNcffv37+4xf/z549aY5j2gDGu1hJSqc7d3R1omwzz67HFNKc6zE3Cgc/cJBz4zE3Cgc/cJBz4lTjAon8nOlAnS3+Bpcy1wqM6dXFYQL+7h+lxCQO1i/l5bDHNLf5VId8g/QW/K5qGA79p8E0wFulQX7Q+/bGRAq3H0O/35XLXhf30CJvXjig6LLAsTp3GwM9DfXDgNwq24PMVYP6Dr9sNLiGMdhOYr1UxrGE83MHobQObDS6BC/5MPRj4wLxM6FQ6F5cpwApP5NivBw78RunA63IDS5X0HzBqH3oAu08VvodP2DkjeJINPED3EZztHkJa7zxAD3yYLVSwD5awwYqiQ5lqcOA3zIFSGUpxMFWZz+cw26kCgoJ7u4KPqBkP97B1HqErNgawDAMY7WfwwqlO/dCoToSxyZxD6B0dcI+B2hRk7MNs5uh4odqiQxy0u3N0HFrw2KQoRRi4R3C8o6WYsWCLaW7xv5PDGt59tU5QHr8aQYj5v8jxN0sYRLkMDY9q3wWI3VEaxFSGA79JOq8wdXcwFKlOH/pzgEdXlRGdJxjBBLrRyI04boFdXirDc3srUdanUSHMkbyAvyOoC/4C6yeh/P/9Gd7iTusBd3Vh9hjGQ5pMNWwxzS3+D3L43MFWrTPfC7f4P8oBFuMXmPhbwM6t3DWawtsrD1vWhS2mOfCZVmMNfNbcMm2HNbcN0aTd2CfVsNmPO7fMTcKBz9wkHPjMTcKBz9wkVxD4UnU0jueo18dh0dfqpW9FpRiEFlMQoos++qkPQ5+vf9bMyPU4mYIglv5YTkNQUHlKZUXzcvC4JmxQjTWMr/JzVafFLf4a5pMePEdz4RcvMPR7EIQk7JCCkJco+IToYwcjKgsD6PlDzdkdeBoBTBL1SCkcLxSjCXQtr+fD0Co+xweLFCd4fDRv/xahhmexPqN1qUh7A3/9Dr77HE/qCvdbDMa/avYjBbMD29WHCMbDxwq27hTE9JjOAJ5dAP89CfQORr7jv6da7fJ04JUqtMyspLk5k15w83Nzwr0Pq0+1cTYyazhHq2wJ/Iz0Q7yO1Ssb1+06UnXuAl+TdExUyUFti9c/piAnHxLPi1MRo/yC663ffXAepaSDGCwTLWtM70FMDRAPhXZs99EhmVRyDZpF6figPQu1QKnY0HchKN3UR37JsVXKjrhQmhUXG7ZS5YuDngZm+OYzfXxihmzbn/g6tyWXdQx9bBsmXTy+TIwhOVrlUuDrOEbfFAIJN5FQJNvh0XOdY1KE2w6cbIMQVUSyCbkvFmCEwRHbQHVOdLyXiDBIdBELOC6/XnKMiSyXn0dfV2SIPkwBiY5hRuNYrB+39fpEueseHXCOlipj0nXr96p2mbYS9xLE1xJ+i68dnZ/Ymj4LCWHcZIdWn/STfr44Pjas/nniK6btKXxdfJ+nNsvzuVFnjkjH9E2ENfDT6iHzwgkh3vDJhzaPzVInxWTVbTdWqevlnE8I5xnBkNSH1BD4tC9eKDBUGSHr8kRQ2eqMSNddcK+Zdqby6JzT880GLl2Hfq4i40FLlZdQnWWRd8yJz+kaun9y4sv0TYQ9x9df74cPWG3dpKOYpyPNgrSkavUSzr5eDnF6sXlVMyA7QgCuQ9OFq4JOIovLhZRVan/CEyxDD3vN3YZHTbpAmVttkCBerWYifO3DLEpDcKE05lwu1yqXI6dzi52yqSs6ebLzpzqKNAIylD97QVK55XIJUyNwTigyVh6XXM8CBX130oPA+LUzyum3+6TrSTl/lP83SucV3rDJ9Ifp4c56CYFupzaKGjHhaxemQkopF3r4z8q/C30+gL+izVAP1wwgeIsasnLkj+oMnsH132GOlnOj5t7E1JFmod4es7jTpDpFl3i7zPVEK7cFLZaToA9PW185ajOTY/Wq/vT9HoBeAr2H+h+FzusGAjdvuPMMTuxM9z0D3/Hgr8V9ZdhR4yfWsBMsjZPxBlPEmULi63XVoUrT5/Rg2LTKJSkYzqShPR98TA3iOCjSkWaCb4+3AHor6rVTT70Lq15Qbtz6wuulfr8G29P5hNopDLBuNNpAi2ppRcvbgxWVdYewc83PRq2mA9rAT60MlgG4W+17hYtBO29CGO1f4nvsrvBhP7M1TOPA6PkT5mKEpQvDnQdhruOkr2GW+Hq2f4SngsgcyCYcj0efFPmcHi6bVrkslOhHGJu/m5ye/tmYnSmDJu3WKp/UBfrWwR514g9zwCPBZr+CFv8XM/gLHmgdoAqs5xOA0VOFVpOht+6YWu+T5fwfyqpFq6weAIGx+fsJvKMXD3hfCrUm+W+OJu3WOp/UQijG+ck28oe4cNG+u9Cx2Y8VWDXQpN3YJ9Ww2Y81t0zrYc1tQ3CLf73Y7Nfezi3D5MCBz9wkHPjMTcKBz9wkVxD4FebtFJDW3K6FfpQ6O9GiX7NOze23ctAEQkxpWtzipzW3EhcC7OFTL5+WeMoJTXqqWXN7C3y3TrZO2hv4huZW/qO17DnbzWpu28t362TrxBL4GemH/krFdbseUp17ZZpbyUrNMsRFmwb8U5rbi4htQfeALa6pYDftrLXIuf83t9A/OtLm366TrRN85cfom63T3EZ1ikPUOeIAuZ6a2ZcxszNPGmeYsVbSdZufVc5KTNlKL9f1rqY8LzXDMes8w34ZpG2CddSkk60Tm2+sgZ82lHkTCb9RcyuIDS/PT+pDrjXws+yo78soTz63DObMyVy5/rGTZ5MqOtk6sfnGnuPrr/cWaW5TiN+6aUZz2whFdszVu+b839yK/oloWidbJzmd2zZpbjP6LIQy/I9pbs+lyI5FelfsuNN/Wt/gvnAKMHlROXgV/0QU+qm6TrZO8kd1WqO5lb+c5s8W6seV8Poz7PwqcclPam7PIsOOJJKJW+v4La2VR0OOGJjW/5tbp38iTD/Rg1FRJ1srMuORGJsCytOSzpMk0EUAmFzTDyYluZ6lP0AdJtxP54lz4wOKc/RLrneaf1LOKeuJrp8q9egHnszPFpHfZ6BzmuKkbsyNYztih94LjFz5xM5JXp3Ykc7F+9Fv0+qfHESeTsfL65fxU1S/PM5LxVUT0HWyKAz8X0udowZmx8ygSbu1xiepUSTCHKRoBpv92vsFFmtua4DG9pOOcrIY3wGU4Or+p696AATG5u+HNbdXBKY6eipEi0UnWyc2+7ECqwaatBv7pBo2+7Hmlmk9hZrbr68vuL+/V1tMWZq0G/ukGjb7tbdzyzA5cOAzNwjA/6cjMdP+T2XFAAAAAElFTkSuQmCC;" vertex="1" parent="1">
          <mxGeometry x="157" y="308.5" width="190" height="66" as="geometry" />
        </mxCell>
        <mxCell id="tNGQDIPSwEXz_14fNPYn-223" value="" style="shape=image;verticalLabelPosition=bottom;labelBackgroundColor=default;verticalAlign=top;aspect=fixed;imageAspect=0;image=data:image/png,iVBORw0KGgoAAAANSUhEUgAAALsAAABTCAYAAADHh3aFAAAAAXNSR0IArs4c6QAAAARnQU1BAACxjwv8YQUAAAAJcEhZcwAADsMAAA7DAcdvqGQAAAuqSURBVHhe7Z29lqo6FMf33Bc5p9ApXD4BPoFOY2Vrx5RjM52lnQ2W0k1rZXPwCfQJXBZCcc6TcPdOAgRE5MsZhf1bi3sNgSQkO8lODn/m5e/fvz4ofv/+rX4xTHNAGxf/f/ER8Qt5eXkBLcgwT49u0/+J/zJMC2BjZ1oDGzvTGtjYmdbwdMa+e38Ri47wGLzDTsWVYwfvmM771UQ8WA2y4h8JWdZY/QTHYIWx7eYpR3bDcsUK2/ddsPo2jLghFR342FO94OFaYIAJjqgnPPYfGNtuntyNwcYdmwCHE7jqDFMncqYYrJoxlDTMZ1cuxwpdE5rOQ98Dz78PtCkdXZ9k+53VPUG8Op2Kp137MkAXJ0gskb9Ka+V56H4F+eP1uvF4K3WtjB+8x2cpb/UOA3FfkJaKKMuN/LCgMBgM5PHShdPch/2HnBNqL8t3g1NcSCL4kDgm+OjGqJDrWxhGvwZ/qbBBYdN3XO0aPGdYjroGz1iGdo/j49wQS4PyABMdABWm+8OgCodlcOl+w5fBIH8L8xexMi2MN6MTGMbyiQBeb1KcCCCJvFzLR1dEXYvgvQZGqpSySd4ruJGfqIvgWSiIZQ3qpUpZfhDdpp/S2Kmc4UGGreIuGw9JbXRp4PI6/bciaZBZBohEHfAyf9Gx4idSyiNxsYPGO7Msm95Rc5ORT8BFfnRP2OmRWBoVyvKD6Db95AtUWnitYajO56cLPUP9TKPbw8XdFdwTHMCGRTDV4zGyVVwJPHIbyJ1At2C5XMLiqCIEQ1i7DkxOC5jW5Dpk5td5hf5hA3+CPOhZjR7WFlF/Wb6bhvnseXHhdFA/0xAGfQXREUyY7/ewVwd1usCvLQT6z9MRwJzux067Xq9h3ldxAZ0hfKwxH7zGnQPMphV2nm7mN4RPC/Poqo68AHC+tF2cOsvyAzTf2DtvMDFwJNaGIW+1ANuw4FObEo7bnWo4XExucag2x+kzhkpvqy1Kd7hwW12seEuAC1/KOgSNc6Btqwqjq3PnKSW/6WYCrh90ZJw1A0u/d1m+gRaM7LT37OL0O5W7CHh0N/34iIVj9WR8hqXYpejC6GiBuw5MvQNvExOOo2ALDtP7cgAWXZVeFxanHryFVlGAzgfMzSOMhFuBI+kSoIeOcQjF9zfQFfGYF/ocllPGbVPczA87MsxEfkFdkYGLnam6y/ID8Cu+TAT589sxfGFHl12XtkyxM/fccm7aA6DbdEt99meH9vGVXx07qi0avfPx+lqlAfDIzmjQP75NYWYfwDDUftRkDl8fwUj/fOg2zcbONJqYsbMGlWk6rEGtkXvWG7dJNfT64wUq0xrY2JnWwMbOtAY2dqY1ZBq7t1tpwgQmL7d0shQfU//Qeyd4XR6d6802EWlV1eU2k0xjd7czsLf5X/UhJUstL0Q1gOg15Fs6WQ9W0xkAXh++jpNB0TYpSxPbMtPYh2tsrDwtoHBPNmzOKsAosnWy9O7JrO/kfvekaJuUpYltmWns8elW6Suxt0d6zkBPKeNIxHCY0duAPI3mwVuR8MMEp4DxprlAMb1rrkF/pz4fkqa7bW5bFl6g2oslvH5KwYLv9MGeLbEy5CccHBzA5PT9XK9+3hc0HnppPFT8KE5LkN5LlbrCtDGR40S5TPtPeEU3J+/LXPbiDJ/i0xsuOORqiUVDc9uysLGbc3z4YMYdjsGEI5yb5drVghwVadREN+WIo3fyuy29HvTRLDehBq4E3h/YHEyYhy5QB4af9L2YfJjzoEx4H7la9rbRM3JhY2fycVsn+wZrV2jgcu3CpJIlHyxKlu62IbCx/ySdD/iyDLBHJf3iOg20zo7zoLCx/zCdjz36xyU/4Xehr/Vgtyzgs+fV3TaEWo2d/EWalnk3phjDtQPmYQZTfZclF6SHtaC/UeuDwRLO4wI+e++a7raZbcmv+NbAPevtPmnT1uMIwPFz/UPWM6PXHxt7DTymsdMe+gJi31wS9GHyNYZTl42djb0Ej2nsWfDIzsZekucz9vYQM3bWoDJNhzWoNcIj++Oi1x/vszOtgY2daQ1s7ExrYGNnWkOmsbMGtRwXGlQ8AsFFFf0pwRrU8mQaO2tQyxN7xRePdNmdFF/k1Z8S36VBbSKZxs4a1PtSVH9KfJcGtYlkGjtrUO9HGf0pcX8NKqHa+uLvyT43hReorEHNRyTLo2MQ/yMBtehPCekG1atBjbA3Wxh/YdoNmUkKGztrUPMR99n3EPNU6tCfEnfWoMq2zu9iPTqFjZ2pgxr0pwRrUAvBxv5TVNWfEqxBLQQb+w9SSX9KsAa1ELUaO2tQi1Nef0rcT4PaRPgV3xq4Z73dJ21WKrGxl+QxjZ32yFmDysZeM49p7FnwyM7GXpLnM/b2EDN21qAyTYc1qDXCI/vjotcf77MzrYGNnWkNbOxMa2BjZ1rDAxh7IApRwRohgUSUrge7UHTyAoP3+PsoJCkkLaiM0wtD5Uu8j36De2pQvxfaj3/UshWnwSP7DpazPozVP5p4qymM7D44rhQrTI7a+yhocNPZESYU5zrQt0daA3fgbQIwWxZr8XtpUJvKd+iXm2vsuy3Y2lt87umABviphCdkwAYcNn/E6O792cDBnEuBRWcIUscQGXcHrd24wx/XKqNBbSrV9MvSO4jNmClcMfYU10L/REOoe5RuQdwlUPcm9YueCotpPdCu6uB9F9pWRYn86JVVoxf9MUYSKl8YVf9VKHVER9Cu7fYMgOM5ykO9SqvZf2XKaVCDdsmoq1g94kHa0jA6UVcqfuXpLl5K25zj10fVkF73F22dOWLLNC70y5ltjuzQ7UT3UhwvXTjNr82eGjjFhuhB1zJ8MB0V0sOub5mGH0Vh2ICLMBim77hu7BxO7Sro+Dh4qnuC6y28XsT6vmNiWfB+ESifX3RNEhkvy6P/VlD+WB7tDJ5KXKORqEZxLZ2LDsMPbhXpmKZvaOeyiKetP6s6lawr8SxOWHbRbuGzBPdHdS3LSvUbntDSk+2k3y+uDytWL0+YY7w+RVvfftZ4/WIamW2eSDOlvQL0+rtq7FhL2CDxSkwzHhcf8qKgyWtjaSVJS/t6BeXKL+N+QjRYwgBihlyDsV+7VsZZwoiuXaOTZuxXnzW1nik+uOfy/uSgFk9Dv1eR0rli8SllyKqPgKxrLtqc8tDbJ8O+9Pq77rPrU7cS9oaLPZpCaGrBKW25XMLi8j3SOBUlX4XzyyB0H8I/wtuB1774EeKdK2SQi5o0qLnoAnlltXFLCija2oZF4GLgQS5KUTLbvPMK/cMGQr065Zn8C+IpZCxQO/AxN6V0Syzg1GKPdi5GAHPsNPv9GtbrNcwTxnJBFa1kmfyuQIbenfXBSXzqg3z0wyn64Ar58IE/fzfq0KDmwgV6nNq4NXCJtjZhvt9je8kDB9Vii/CbbT4EKYpTHWoB4Hwl/oJ4Ctm7MfSpDHsLS6wtMxjWk+BihOSLmaRoJeVCSwWLkCc/MZodQLPfyNBTvtUid1sWci9dpR9/Xg9osO+/1mv+lTWoSS7qmZ57AbZhweeV5svDsYhWNfQIorbeVd1WTLY5dYbNBFw/6FDa510yuLH1SNtwNtg47YdtjyPS3DzCSEwx2KuWAD107LIhraQTaSVx9bzpO/n2lkvmR67JMfygDe2503iEhtUNdgnoUKOqGGX7sKG47giOZrJsNDoaoG3Y1EY1DWoS+liVC5PTNHzG7gY7eI5R7zoGTMZFtKqyrWERtfXi1IO3G9YY0y/fanPqUDCDrnpGOgY4YNwcO6XrLkkEn5uMFXphkguiBPest0a1SV1g2xq4Ko7aI7lpEaHX342R/YkZfoIF2iKmAvR5Cpi8VRgdGZpd32mUvjhon19dkhPaQCi1DFFGL0gEnx/H8q1wQ7osNGpkzxD3rLfGtUktuGIfnurGMAx5aP+2oKPXHyuVauCe9cZtUg29/liDyjSeVA3qv3//4NevXyrE5OWe9cZtUg29/pq7QGWYGAD/A2rB1KJPUJODAAAAAElFTkSuQmCC;" vertex="1" parent="1">
          <mxGeometry x="157" y="460" width="187" height="83" as="geometry" />
        </mxCell>
        <mxCell id="tNGQDIPSwEXz_14fNPYn-224" value="" style="shape=image;verticalLabelPosition=bottom;labelBackgroundColor=default;verticalAlign=top;aspect=fixed;imageAspect=0;image=data:image/png,iVBORw0KGgoAAAANSUhEUgAAAMQAAABoCAYAAACueF/+AAAAAXNSR0IArs4c6QAAAARnQU1BAACxjwv8YQUAAAAJcEhZcwAADsMAAA7DAcdvqGQAAAvpSURBVHhe7Z2/drJMEMYn343kLTRFjlegV6BpUtmm01Kbt7O0s9FSurRWNtEr0CvISREs3lyJ3+wfYMEFQUAjPL9zPBEXlnVmh50l+8jDkSHm5+eHHh8fxVuQgTLtBp+Ui82+/+m/AADm4d+/f3KE+PPnj/wAgDrB/V+/U/gp08PDA+m3ANQCW59HygSAAQICAAMEBAAGCAgADBAQqdjSkCdgw63e9NgOeWI25NLbcNguuE0HvQWKAAFxx7jrMTlrV2+BIkBA3DHd5ZGOy67eAkWAgCiQw2JIHU6txP3th86QFn42Y0m5Dgve10i3eHvYEcd25PGd4YKCZOhACy4bLrgesY+uaDvk/YKTMLzfUB3vtQEZVTYQEEXBHfptTDQ58lVbvCZEq9nW6NRJcEeercTBfOyOXy71P8fEh4dwVmt6fXdjRgURNE1aPU/I1W1w+5/UezMDC5wDAVEUjSdqkUNTvorLDthd0o47bkMWnqNBo+WOvH5+4AqeWkSf3+GuPJgsqduIqfHwQav9gCaj4JyN0YQG+9PAAvEgIAqjS0t3Q/2vKb2dpEznOWxVutXh42azGU0/dUEumvTc1m9BKhAQqVAdK3rFPnxzr20/c6mm0ZVX+p1IVzhlGqdNV0S61VPp1m63pOVySRMeIfLj0tdevwWpQECkokEv/Tbtx7NgknrY0my8p3b/RaUoYpLcCQJAfrb/4i4piAbUgbY8Z4jtq1z32tHv09J4oX5bpGxBCB4WU3Lac/qLG1GpQUCkpDHakTsnmjb1HZzmlD7nG9qNdMbeGPFVfUVNmfZwOec88w3n/KqQRpMBDxlNffdnRt+vffKzGXHsgCfA8tgOcTE98+7Z4HPseDL+9ebfZWquWrR5H6ngBKnA8m9QW2x9HiMEAAYICAAMEBAAGEBTDWoNNNUFU6bd4JNywaQagDMgIAAwQEAAYICAAMDgxgGhhS8lLE8+LDpGvQfaGsKZsPhG7BsIezphFQ+3r5Np1aoQ7XjnkS8h0tFlghNRjxQKlWMDkJ2KjhBi4V2LXj19weKNek6LNq4QzijxzZvXKaWw55P6oszdUMvpGZ1TLOojGmcUFLTnrrx7Ic41bznUMxb9heGAE6oi3h9K0N9BNQNiuyZn8KoX1hG5X3vupH+pK1e56ZWrqw/ZSQ8fK9oPJiTX6DW69DogctZBADQ4ItrO+sJf1mjQSFTor3oNsx02adwyFgiCm2MJCEsaI4d1PfTz+6zaX7GcWR2jjhue5CB8nJ/SRMovON927VD72VcpSDH+SadrPclVoDJYjH2bap12cA69rNqIkUIQKV3PGdAm9dBwXpcdr+lmoj4I1rFbbOj1gYL84rfHTF2j9cW177pYAkJdQc2rpLqKiisuf9HM2l8+5q1Hn32dRkjlTDPkWGf6QU9/RX1cvmmRI3QHsuSy8wndTusp7qp7oI+VFwRqX5OG0G6GaFjlnOng9gthgykiEnzNpP567nrLwwuAO2i8ptvig95bKGBsem1nOsvpl2+uU7Vnw6njuPlG69d3e31n2nc1uAES4y1/v/mxTYPjRm0c5206DtRGCNd1j5sBHTln9j453TdUVxRb3ZvjgNpHv0qDVOdLOF4gjuf8iY8UqOOD+pjNwChXhM8ZJmQ3RtbPn/mvdvi7q7rm3Mb4Oj3CdYvvlWRbVd6eb0Jtl1h8EHwnmw2L94s7bx8p/EHQpsT2lUfUdwL7HMJME7R43Z+gZtX+ul/xyrAUFKk19tOUnSeaUVd/EykLzQk7UlhavXa2UeCFlkJtFBkp85Gg6ZY+cGgqxEf61cuqyItQqAa8hPZdSsykWim8RNoUpEuMGJazan+bz4EyLCuXnC8GEQzNcYs2x3AHFXOG/Vcw5RVzCm9+USqNEb3zZdTphW/L5iJO0y19MKDJjsv0SwTrxZP5Av0iKbp9OYi/y9R9pYGzphl3kIE3PERJo/090fpyvignbHozC6m0xkK/vCejjwfBYMnZ1V2kqbqa6vrD3/fcnORyhCx1M0i6LWtyRpfNnTRW0+2P+MaxPAFfFDVxTeWXBMpuXwbiA4K7zis7y+EUw+8fF2l/ebR531BrpfXED01atTbp7rtfeL7wJFj9GABP8ajX9O5iiJe+MssrdYtWoqzJE7tBtG3ilyvaZNyIKpTuciN/O8n/v0gsKXTZSZpu9gFNAx9Mv57pRd2Hzs5Ffkmi4PbloJrLv8Wvck+fyfXnCjkQV943oveYusq0W6V88gux2TdhhLhjun9pTiv6KGDE3c7GRN5PzYDKU82AEEPwpM/ZTt6IEMfP6R3/Sa4NUMzlBCnT/WKzLzTVoNZAU10wGCHuF5t9KzqHAOAyEBAAGCAgADBAQABgcOOAyLGu6QxhTbX457UnTHkoVVNdHSyCpBpQ0REirKkWSzmimuqm52mxcrNgTTW4X6oZEBFNtZSURjTVHuVqqsG9YQkISxojFrhVRlNtSkiV/uEWmurseH5JsJXYx0gN5U/g+MURW+nyRJ2z4Du8f2AGu+1PfH12CTfvz/vG9je5WZRWPAVHjfH2RO4XbLvH+aBtSAOjUkG1LWWTblhO6MsBXVMK6e0/5/1lqdAOcls8OeHl5wv2CfDknW0uVHurfUNSxZwS0iIJ121+V/1R1FbyuwQSUum3iFzWtLWyh7Cv/4FRn/KTebzc3zes2R7/jGF7Sl/Hy3kVZn/QJMlLuY2x/gudz9a+MDbfWQMi3AhVsa2D3aOmWhwTOFYdH+rsvzwgYr+r1c5mZzs9PlHnHDpWYwnAULmlDUm2U1jOY2lHMVrxMDbf2ecQFdVUKxrU/TvX84JyNNW/h4KfU31ODlyKNvq6WvGYSbVSZ1VDU61zyZgU8maa6qtQ8HOqz13cytJGX0srzsTfZaqMplqNAs7Um4wLLfLYD/JbaqoL5cTO3PICnlP9KS6K8h3bTRnHv3t3wkXa6N+lFU+47VoVTbW4y+TSRuuNpV6X5uR6Dbixpro42M6FP6e6Tf3Xb5rJuzhN6n0adrNyiTZaZSO/QivOQFN9DnGFgqa6ktjsW1E9hEjLZC9W/3DLgfj5+umzG5uXIiDSIP4XMKXT2xUt6r8vc/voUmoUEMx2QQt6oVGunzLhnHT4Qc1l/EiDgLhf6hUQVwIBcb9YAwKaalBnoKkuGIwQ94vNvgm3XQGoHwgIAAwQEAAYICAAMEgfEBHRBrgFnhgmjx9yrCWrAaWNEELldIsHXlQZuVivtaFj5ClIoDhKCwj3y6HVt94AhRCVu4LiiQ8ITpF8raoQZRiPqJL45VGtsxqShVBjL1cw6uE9s9YWmIg1VZlsGi0LCZEF7KeLdOwV56gx3jJRaaWWXZrywUStc1Q6GKkvldb2PgjbrViidae3qa3M848qM7XVXHEm31YFm+/sAWHT59o+05xqnSPOu0hrex/cLCCSbJrgKy60dPD4C5TNt1XB5jt7ypRCB51J61yK1rbmJNk0hf+SKF7Hfj/YA+KcDppzzExa57K0tnUmyabn/JdEVt9WDHtAWHTQUoest044p3UuQftae5JsavFfuTr26hBzl0loVeeBDlrqXOdhnesZrbP4qRelkxV3RIrXvoIkm6qy6+nYqwOWf+ekTLvBJ+Vis2/8/yEAqCEICAAMEBAAGEBTDWoNNNUFg0n1/YJJNQBnQEAAYICAAMAAAQGAQeqAOGwXEPXcFGihr0FsQEQ10e56TM46KpsDoFrEBkRUEy0ebXtMtToMgPvFEhB2TbTQ9Haiy4mzPPMYmuqCSNBCh8r4xT4JzBzxmZd71Vk/beOoMd5KorLB8PapLleUxz/zWO0fyB+hqU5DuO5Tm9ttfO451by//9xm/qwm+mkbNt/lCgjTcInPPIam+iJsARGrhbbqqE9/XCCps1dZP23D5rvr3HaFpvpGnH9OdZ310zauExDQVN+IM8+prrl+2sZ1AgKa6vI50VGL/p7xOdU100/biA2IsCY6L9BUlw/bOOtzqmuun7aB5d85KdNu8Em52Ox7nZQJgDsBAQGAAQICAANoqkGtidVU//z80OPjo/wQpKdMu8En5XJqX6L/AZ75i9CTCOO1AAAAAElFTkSuQmCC;" vertex="1" parent="1">
          <mxGeometry x="680" y="433" width="196" height="104" as="geometry" />
        </mxCell>
        <mxCell id="tNGQDIPSwEXz_14fNPYn-227" value="" style="shape=image;verticalLabelPosition=bottom;labelBackgroundColor=default;verticalAlign=top;aspect=fixed;imageAspect=0;image=data:image/png,iVBORw0KGgoAAAANSUhEUgAAALAAAABVCAYAAADpPm5vAAAAAXNSR0IArs4c6QAAAARnQU1BAACxjwv8YQUAAAAJcEhZcwAADsMAAA7DAcdvqGQAAAqSSURBVHhe7Z05cupMEMeb7yJ+ATigOIE4AThxREomQpM4IyQjESHKnBI5sTgBnIByYBE8n0Rf98xoGy1oYxGvf1Uqo20k9zQzPaL/mo6HAPL7+wtPT0/0kSnBJe3GdZJEt8l/6i/DtBJ2YKbVdP7+/StCiD9//ogNDHPvoM+qT+jAfgzc6XRAfWSYu0X3Uw4hmFbDDsy0GnZgptWwAzOthh04h92sA8P1Sa2FnHZrmO2S25nrww5cAfdzDvanq9byOa1nsGZnvxjswBUYbTzwNiO1lo/7bcP2R60wjcMOXAE9tKBWdtjpiGeUnSG2uGLXCdbDDoxtgMO8h/tmsJMHwwy3dzpDcfxwtsYjQ9LLYrJgB64LOuR0DrDwsFWmZQGwXe3QKbvwtvfAMQEMy8V9GxiRU6+2dDCu73FxYXKcAx5+piwmC3bgunSfYQA2LNfK0UYb2GN40RU7ddCpN3vwo48TnvA8ADj+KBctVRZDsAPXZgQb14HJ9xKmBbr9006GCEM8brVawfKodgjKlcWwAzdDdyRa1j12+y52+/NpPK4NoBBhLEOE/X4Dm80GFtgCxyhaFiNgB64LOuVwGDqZ6O4P31DoIdtpB584yAuoU9a/Cg4WBJGPjAIHYMIuwWJYnqu248BMHoQ4piH2GwYdY3iWo3YQruUZ4nzTo83hsYZnmI5nlSmLEbaJwumUTKvgdErmoWAHZloNOzDTalgTx7QO1sQ1yCXtxnWShAdxzEPBDsy0GnZgptWwAzOtJtOBWfdVDUp2p4FGsAxVIrsiobOj/Ac8bhY9KIOzdSLKil8viUy0j16vzXWd6cBldF8Ea79CZAI7JaW7YA1sGEcSdOKgM03nAHh8EYVS2TopyqXKvQaZDlxG90Ww9iuNLry9mpkZZbtZD+YDB/ZvxVLWy9ZJUS5V7jXIdOB4V+d3O/h3JrVcpOmaif1yX0L7xeRyWg/RZiY4JRwnLfyQ+joZqqwrNqLFNH73SalBnL1cwfM7abnwG+sMwJ6v0FnTtF+MBL/clPBr9KGntgi+V0L7Zrl1bCXDj+NEhSv7d3jGUOCg9lYGvxR0b23R5ZVyYHOBBvd7u9ErmHAEX87FhMieiFowDBGO2Mru3+K6tn4fBuhq268axjt9wfZgwiIIP7owerfAUGuVaZkur5QDM8UIB3HUMqa1si+wcS0AdPQiTx9Scb/rt7aptEuXxw58K7pv8GEZYI8rjhl6/fqtbRYt0uWxA9+Q7tsexw55j9ly6L7AxKCu3j/zBLtVMzFwm3R5jTkwxV/UJfJTiHKMNg6YhzlMS/fTOHj+sGCwVfH2cAU/r0Vi4C68THD0MtaeaPhgz7AYbKGHZQ7pCcfyCJZzvwNzTqesySXtxnWSRLcJO3BN7tOBdzAbLiH2zhTBACYfGyj4u8ldwg7cMPfpwI+LbhMexDGthjVxTOtgTVyDcAhxXTiEYB4KdmCm1bADM62GHZhpNTd2YD9RXq02CCWMh+XuYIbBPw0A/CWmCYskcA9jN0P3N7zfbKxCGrhLkKy3W+nqHrQF3sFqPoDX2A/4Jjg4eqURLC2BEEIkcB9h4uJ214GBPY5UDOUNAMyDWViYLG6lq3tMB959gm2+hgkopx846qoIxelrCwdzIX9e7Y6AJGz2Z+iwXfRgw/7kBKUz3EpXl+LAKd16tKvCz9nznKlz1/RbPB7jF3JS66Kb9rV0UfC8hNZOUeF6u08bjL7urltY+fcQSRd0vw+xY3t9g6YNCq+h0hYjPn07AlvQ/5CigdPtHOnSc3VuZ+vnPLfS1aU4MHWbRqwVkq0UtWjoMHnznCns7Se8frjqG4nnTMehdktkSMeVCPbyK0VrR1S73s8RYPAcyVgh9cIBQ4oPKscFC+bQEzcgj43SpXmvYnTjU2HdDLJjngYuxc7jqXQcESZl6dzO109pcq/XMHgBQeSjmtdBzumAK55lgGemzNXguq42X0TKsbGydNLKdjwTDC8ybURAoevlnB/gmGq+C3l+WB4S7AvR58SIErNbw2TXiSK6LWV/eN9kE/rsxP4vQW79ZJG0e9xGOderiW7v9Bg42m0q8aA/IMqf5yyFmtqt0tcrilAZyNY1yklvku+Fc3YU+21YDodoK7nQqw4kOTq3i2jrrqeryxjEdeFtYYowIgwfEOoazs1zplNHu1Xlegmwi8T4LtElqkEdxbyH7zCYpJgY4w+0wJ1xzo5ivwmL/R5tJRdsoMKXpmTp3C6lrbuSri77KQTJ5nH0vcIKNePPo0L0ec7SSNFupTpUEYpcD92ybxwg9EkV0y/XIMc0eP0lDvImL8JJ5VOGpYoVZfnx/zclpr4F5zRwQa8Z2e+/7gsbgkydW5P145N3vaaRkQR+TbTYgqC4xp/fzCd/nrO0mBRxMSbC7XSeODc44HwMW+V6yZiVYmdZjn/92F7LxDhQvzef/JiazrkUibIxXg3saJie5Wjxa8LOYSyfO/9cZv1k49vMt7Nu80vNd0dlRnnMdEqMmzvLPrj6C0WqQK3JFOAjo6xL2u2h6qQhdJs8aD4wdYPC62rrv+j55rLvZr6A73EdmJ4N35+u7h9xYGS3hjW8wFvwLqwqYBw5+4LeJrslf1wHvk/+HQe+EuzA1yXhwKyJY9oGa+IahFvg66LbJPs5MMO0AHZgptWwAzOthh2YaTU3duAGfnfPIK6Jo+e5fsK8nhRPxzaniaMfPvzrBNdTBaRN0kLXvcT//6/woC1wXBN3Wk9hbA/AId2bSooP3sdLGW8Na+KM6BQDuKT/iodfjmnxOeKYdB7TgTVNnJANWe9qghqZnXbYfolW+FaauLJzxDHppDhwSrcuurr2auJIcJhwFJXzewtNXJU54qhXoVcDZNaLWC2he4ukXSZt6PtAQ/US3E80lNPLy7q/M2AXJ4h89FzL8CCSUheuu55lGpH0RT2dUa5Tqp/j+ql1cluQakepe3gteY5/vIXHi72Uh4f34qcIVr9eeIyO3C/vJ/pZUVNSJFNQo0s0NRTLMSkNMTs9M0q87KjdFHmSIvw/wrRR7f8UdeDfQ7YN5Ta1qVK9hPUq7ULnBBvi5WXeXxzd3qkOHDeGfnMhbdTECUMGDqoZjmjAgbOOlfss4YhZx0Qp5cBqf1HdW3ifaTZsvl70RjF2T7n3F0e3d3oMHO02H0gTF3TdQW7vLTRxDcwRl8o53VuWXq4ajWoVa9xfxiDukTRxEnLe3nwAjjYV7k00cXXniMsiV/eWo5crS4P1Iqhxf9lPIR5GExdx3pS5iW+liSs/Rxz9X9H3U5AmDhsXtUZOdU73lqqXa4JC9ZJDjfvLeYxGj5RssLHLDeqT5hAzjzAWXQc29SuAPgZe+dB8Zk44n1mnB9uBU+zZZ8XrxV9EQs+EqZrRWXr+KJcW1fqJ1nAAW9rXG8PR1O/Nhe+DAYkX/TRAuTniZK8o5+LDexXzwuGXT+0Vtsqc303WASzDOlh+9+GlarJ/pXrJo/r9sSbuHNSysSbubtBtktMCt5jRO1iwhTqTwfuQdB2UBJ+5Px7TgalLWkyw96/rwXS+BR/8a9ndwoqMmnAIcV10m7AmjmkdqZq4399feHp6EhuZ4lzSblwnSeI2Afgfm8Ij5OzqyG0AAAAASUVORK5CYII=;" vertex="1" parent="1">
          <mxGeometry x="920" y="298.5" width="176" height="85" as="geometry" />
        </mxCell>
        <mxCell id="tNGQDIPSwEXz_14fNPYn-228" value="" style="shape=image;verticalLabelPosition=bottom;labelBackgroundColor=default;verticalAlign=top;aspect=fixed;imageAspect=0;image=data:image/png,iVBORw0KGgoAAAANSUhEUgAAAIMAAABUCAYAAAChpoTxAAAAAXNSR0IArs4c6QAAAARnQU1BAACxjwv8YQUAAAAJcEhZcwAADsMAAA7DAcdvqGQAAAcKSURBVHhe7Z0xkrJMEIbb/yJuoBtYngBOoJsYmZphqMlmhmYmGEpmamTy4QnYE1gGC8F6Ev6eYURQRhlEROiniloEbMbhpaeBd7XhI4Acj0doNptsNnfeNXZVkfVZ4+/vj4vh4+ODLyDqAR53MXcmzAyNRgPELFFxZMf6P/GXIEgMxBkSAxFCYiBClMWwGzd4ARJO+hh2Yl02djDGOGNpEA+W+q31ZeO6vd5uia898aq8ZMoMmunyatT3XTC7FvT1JXYBIcPdTsHauuLVbbzlGJYvEs6Dw0QLJgMD4OcA6T5qPemt8MRZ9cSr27gHCza/4kXB5FwziBS5xNSPfxthrsTlYz0+tFyK/1e8J83Q40W2beiRFHyxfxFr6Xk4vJ32j9svIzv3MIXzbYP1+jie5diZqvP3nWKJFQqwoVWPvDE5ZtD2voXn1rSN60QfFNC+Ew+KAT/AFluvdaAtljCszRYGaxxK+NnAPmQbNp0ZuHxo8cEd7qE/in8oC0+HbycYemw29EiLBIw36sN+KIYqdwYYLNYJLNZgHeyLxZq2R7AdrIPt7S5Y04UQG8ZabABmbFuH73u4n8Ii1PASRlO2Oojl4642uPKB/r4RE7Msfn4bE20wDK+gV3T7MAgnMnsTbCzfNpw0w7fFOmysb2rgG+cFuMj0NYhuw7B9/Mxiu+i8wDYw9uk9FzET4rE2YQfi3PX+XVPzIb4goT0BrutGYjGCtmmmjZHTct0GlZjxbePk0z75sX6wgMTJYQpWpQ0dTcwm0e6AdLV7gB+wYK7roIuJpdaseLsgzeqYYheLBcz3YgWnByvXhuFhDqMc0nCAWswi25dzzZAWFw4/YjYJfsAlcKEYMHMccMTEROlMWmIDBVia7Qdp1kFRr1YrmHXFuhOtHkxWuB/cho1I04vhLRNpYxbcvueLofUFQw3P5IhkveUcLM2E70hK2W9PYx0We6wOMQbJGUfE20aKxl1el2NYmLJdh+DB0COXzVxuj145PRLzye0rIDOwwggLn8MoqHhxam+6YK8nQeM5GgwHv7DgVXMb+nsT3PBSrAVfQwP2/VNFjvHWNsCcVdzB9vNDB756GTJDawIzA4tZnoZxyFkAdHAQDmHruxto8/W4L8zRpn1vWLxs7wV3Yva+TTy9xdXEU9onhx5h1xDZsSYxZILdx5hDrJbjdGG4XkGW8qVISAxEiOxYv+hqgigj5IGsKS/zQL5r7KpCwwRxFxIDEUJiIEJIDESIVAzP9O3d81FemkH4PXjcLo0P8m67eaw75pm7MI/GO/ky0yEVg4pvj6Hq3Ts/Br/no2RmlikAbp/GOababuKMVAwqvj1Gdu/ebR/lbtyGaddO/Yhatd3EGakY4qn6lBbx75WXMFh35d3LAW/JjCsG2AoHN2mIifkhUyWNnbDvK/gyK4BSAWnNF/D5HZhJzl7CJO+eCiimBB8lHBbc32e62R/J8tgYJPRLOt/wicPILV9NFGue1pdZDZTEYMzwwJyydW8ABuzhN32ZECPIIuysw2Fgj2e/E/U3IJ0OdPGwbf5l3AHD+webHwNm4RDT4n6BW467KMbs1CZ8HxvKrG2ls4OSGPLkvo/yC1ZuYPTIfELess+pcsuXWRFeJoZUtCawNjWw+hnH6zwPYJ7CKinlFgPSmjhYj2T8F74r/6UHu4VCzZDWl1kRchNDzLsnluVFb2WD8TOFUfQqIRXML2lCdyPqE30BvwOFmqGT1pdZDegRdiLs0rIPYPupbnS9G7I+q7EYbvkYB3Bokxj4wrx5v9iUGUgMNUEqBvJA1hPyQBIcWZ+V/j4DURwkBiKExECEkBiIEKkYCvVA4nS6rfuI/5FRjAeymkjFUJwHMpiSbW2BOSWt/5FBHsjsSMVQnAdSjqr/kUEeyOxIxfBqD2QW/yOjGA+k6I+r77t8b5QKyDw9kGfbG5v0+LeU5eJ/ZATDzLM8kPHvu3x/lMSQpwcyXjM48W87ycP/yHiyBzLoj/RDWNlREkNx5OB/ZJAHUomSigF51P/IIA+kEuUVA/KQ/5FBHkglchPDszyQ2f2PjGd5IKsJPcJOhJxONRMDu0dAHsgolBkSocxAYqgJUjGQB7KekAeS4Mj6rNT3GYhiITEQISQGIoTEQIRIxVBvD+TJzCNeIs/sj7IgFQN5IOPUwVspFQN5IOPUwVspFUO9PZDXXMbN8zeoy4JSAVk3D6QUFBhrX66/kV0ClMRQNw+klNYnto+ZZoQAeitwMIOlH8zKiZIYiqOEHsgYz/iN7NdTUjEgZfNAXvKM38h+MeUVA/JqD6QUdq8ix9+gLgu5iaFaHsjHfs/6XaFH2DVE1mfkgRSvzrzH71k/AomBCJH1WakLSKJYyANZU256II/HIzSbTb4wb941dlWR9RkNE4QA4H97F8KOn5/bNwAAAABJRU5ErkJggg==;" vertex="1" parent="1">
          <mxGeometry x="690" y="298.5" width="131" height="84" as="geometry" />
        </mxCell>
        <mxCell id="tNGQDIPSwEXz_14fNPYn-229" value="" style="shape=image;verticalLabelPosition=bottom;labelBackgroundColor=default;verticalAlign=top;aspect=fixed;imageAspect=0;image=data:image/png,iVBORw0KGgoAAAANSUhEUgAAAIIAAABECAYAAABNsu1UAAAAAXNSR0IArs4c6QAAAARnQU1BAACxjwv8YQUAAAAJcEhZcwAADsMAAA7DAcdvqGQAAAd4SURBVHhe7Zw9lqpKEMfLt5G5AU7gcQWwAp1kIlMzDDWZzNDMBEPMJjWa5OEKdAUeg8Hgzkp41R+gQNvQCMob63cO907TTVHdFP1h/w+dCAHJz88PvLy8yNTjaNKPttSxLcTt8Y9ME08OBQLBoUAgOJ2/f/8mc4Q/f/7Iv4hnAmMAUpPFTqcDF0niCYifOQ0NBIcCgeBQIBAcCgSCc5dA2E464KxOMnXmtF3BZJs/3yjbCTg4QWKTpE7Huf/9W8pDe4Twawbrr1Cm9JxWE1jd/NC2MBmuoR+EfKYcBn1YD8egiNGn46GBMPAjiPyBTOkJj2vYfMtEVU7fcAAX3gcWT1qDD/DcPv/76WG/I8RkkrURuBDZXihTZ7LnQ8+NbPSB+QG2G4msMPJseY4fbhSIwpHLz9v8vO16WLIAvIbZdxW+cMJA2hR23SAuJ3xwvYt87l+IdRD35+Uv7Wr9k/bQvlfp+vpgtvn//F9JfLJuSgUCf0jyITMCDAo3SCqftiEaELMlccPKpIaQ2ZUNz+0nbgkbZ3/woWMZkRR5YHtRHBvMH/7wzicwHftf5F9sD8vH9ze6vj7aFwjYBC7e38a3Ll/yug1GyN/M6/kqwuD8xvHLsoGInG3mH0To4ZuaPpG7Pibvn+rBXgZemir1K0v8zFu0fByAHwYwOi5gzGb0Dk4ONZO4k5z9O1huuVzC4iAzSmINpuDvQvDsPWz+xRuFR9jDGhaOgzbFgfPKytzq363Xm9Ku3xGsAUz9HewwUMM5wGy8AmUsnFYwHgLMsdxu54Pv+zAvMec7rRwMsEubFrzidfsjrly6PcA3GuY7vL882Auzm4qJpREV/Uu49foKtCcQsPLOxUPizb8/QqnF5WkLXyXeXuttBPZ+Bst4GYr3XOB17juuXKw3GNlr+EqWqCfY1rJkRUr6d5Vbry/B3QJhP+vKH3FYt694060pRv0Gurw7xDLYF3qBjwOGYPDhYRfBbExgy8q6BxjystiNLwF6OMEoBK/7xMH2MJS+dDfQ90IQK1gLpp8BwCL2swuLYw/e5FLTiKr+xdx6fQVoG/rJiZ/5LwyELUycBeTnVn0YffpQZcj/zfziQCBMiJ95u1YNxMMgzSLRXs1ik37Q8JeGhgYiBQUCwaFAIDgUCATHLBDYfgD7iVcm7wXTPLJJTXI4aR9ymkjuZwcmVRzN1LEuXaWpHZPydfjYaI9Qj85QYHtCZxhFIXj9NQxV+xWcE6zGM4BkD+E2THSVOkztmJSvw8dGA6EWnWEOC6bv7tWdye2kC7N+UG37WIGJrlKHqR2T8nX4qA8E7CYnbCdQdserbMsn+Q4v40zitxTfSjzPhB1i11F2tSe2DyDtNSAlZ3qD4dqFwKRRCuqoGnbUddaTtiPah9V/NRF2eHtc3Cd/30zb6coy+4ldPNhQepmtQBMIoos9jGSXvPuAV+yC9jKX5y83TD2B+UzEEcLowPb6WR6+tbsIAnxxRZfOtpOZveHZHlOeVJKSox22OW/3oCvPcI5LECPCeeu6mKI6ZtHV2Zz1YgmvH0IAEzFp/Wx5Zf6laDt8wdRzICzrdGHTm0PIyuIRjg7Y1AUBiwUTUkmVBs9Ilxel01pNYJqMW7wcO5ccTPQp8xjCjic1j3pdn2kdr/nIMNESpssVaxZT5TXtziguK/SgKvFr3B7XewSu4dNjpKu7UROIFWUei2OneuvfwA+FeKX0aqFEHbPcW0vIqeBnmi70bPnnFa4HAtfwacCx0khXV6cm8BpMgYSv2npYcolbVMcspnWuC1M/c4RwLIik64EgNXyLZBA/wXapGT+LdHVNagIvsKY7nJvolpcXmNYxyx20hByFn2KyKZOX5Mpi6dUC1rYHH5rJk2ayyDR8HvQ3UsPnLOH73TtHZgldXUpnWKcmsICBH4C7n8G4cCZaUMcsD9ASCkTbJX5i221wiaxeHLGJOk5ij2NZtgPdTR+CzynmXIe2oZ+cuD0oEGrj/6mVpEAgOHF7aOYIxDNBmkWCNIsEDQ1EBgoEgkOBQHAoEAiONhAe8h1EBUx4wSY1l0csxFAJR0z0ioV15PaKNrHyv/23pe3Kog0EUy1cnRrFLKltaDzUu5ZMwGGmV6xLk5ilKbtNoQ0EUy1cMxrF8lTRK9alSczSlN2m0AZCeZ2dyMtpFO9IJb0iohpadBrGsmTtst6SDVmJ3WY6zsoYTxbVOju29ZnVKNZL6tM7GICphqykV1QhhpbyGsaSMEEL+scELdzuHGCz3OLd2oNxILhzbOy45x28gwsH+L5DjdJzhF16N6/Xgz4+Lv6ZvFs4/QubvQvzxLjFNRW3qYMQ6xX9Y2IR+fAHPuyw5yo/gDWPcSC0kwp6RRU3awOvYfYNyUfwSwIBMdUrqrhZG6ih7DckH8TvCQTESK+o4lYN4zXYbxFVvyF5J2oNhLRG8TGU1yuqMNQwJljwNmLfb8ysQGKY1lHzDck2QNvQT07cHhQIpfmd32+kQCA4cXv8qskiUR3SLBJ5zeLPzw+8vLzI1ONo0o+21LEtxO1BQwPBoUAgEID/ADrcMfXxOrTRAAAAAElFTkSuQmCC;" vertex="1" parent="1">
          <mxGeometry x="950" y="451" width="130" height="68" as="geometry" />
        </mxCell>
        <mxCell id="tNGQDIPSwEXz_14fNPYn-230" value="" style="shape=image;verticalLabelPosition=bottom;labelBackgroundColor=default;verticalAlign=top;aspect=fixed;imageAspect=0;image=data:image/png,iVBORw0KGgoAAAANSUhEUgAAALYAAACUCAYAAAA+lNM5AAAAAXNSR0IArs4c6QAAAARnQU1BAACxjwv8YQUAAAAJcEhZcwAADsMAAA7DAcdvqGQAAA9GSURBVHhe7Z29dqpOF8Z33hs5/0JTuLgCvQJzmlRp02GpTTpLOxsspUtrlSZ4BeYKXCmCxTlX4rvnAxhw+JLhgOP+reU54sBAZj8OG5yHeTgjgPz9+xd+/frF3hI1aLPdKCbV0LXT/+T/BGEVJGzCSkjYhJU8/Pnzh+fY//33H/+AIG4R1LF8J4gvHh8eHkC+JYibQqddSkUIKyFhE1ZCwiashIRNWAkJ+0r2swd+0RK/JjPYyzKie0jYDRh7Ib8aP59D8BwfniYbOMmyJpw2M9jsTdR0v5CwjTCA+bML8PUNofykCeG3D7sfuUBcBQm7NU6wmU3SqYrSCbNeeaKUbXgZbjN5gCcfvyOLIZZRenMtJGwjoCA/UI3jEQyj5ckQdqMlhDxVOUP4coSnV5mqnDbwugBYyrLzEmC33mMZ9vyHMwTY+Ys0ZwtTXh9RG2xYjvKWqACKj7dZ/Bq750CWnUPvPAZlmROcUa9nl38o3o+94IzCv4DVjcKWS0QZOu1Sj92A5OIRX4ey3nUIo7F8i2tuwwBevlfwmkpFCFOQsP8ZIXx/ybeMwRTm2wMc8EsRYiqyiNIUwggk7DYY/IaXsQ8rpRs+bVbgjz14Y9065tgT5dbggP1j6I4KISBhtwK7CAwx1XiN74oMdw4E73Mh4sEcls4Ohvj5ZILlqyN4QZLKTN887MLprkgTaNgqcfPotEs9NmElJGzCSkjYhJWQ55GwAvI8GqbNdqOYVIMuHom7gYRNWAkJm7ASEjZhJbnCPu03MCN7Um3KvJCsfKIO5WPjRnC9WYXfzktjwuuin+EZucIOPxbgf1QflkM+vYTqXsgTbJjjANffVnAU1I1JF/RFB7nCnm4xMFVaW0I+PR3FXsj9bAgLJ4DDnA+NKqVuTLqgLzrIFXb6lCm8eOw0mPj4JjDj5aKMfHr1OG0m2GYuBDWEqktjZmx0oEx5NpU68z3MeOqD/yvbpmOmxlmWp3bbf79mrYtHf7WGx7eDOM0GDviLNR48+fTywWCnvJCS7zX3PHphk7bCurGS44tMew5v8IipiuplKMJf/cAbxo2lSwFLl+Iknwn09v2atYTtLvFgo7Pm9BlcOMKP8k0mBKLHYj0aphpH7JUPchx2xGgEDkpw99mg8U6fsPtyYRmnMQM+jjt2n5XgLqNjwu1YuuR/iB42rncaH/NgvgT3awGoX1x4xGNnJgomZmS6hQOedVJ/Xw+oJWyiGuVeyN+wDYWZoMrdEC3hd+XeuZThqOQLcXt+TRJ2Vwzm8O6NwX+6MhctFWMNSr8kt+fXJGF3yGB+wJz0ykejXfgqT7Bf18ixP2QqwbZj1wHuszizWOLXNCZs8uldx3Qb8Pz1tfb5HC/W3j1wdjKfn6zh57lGjj36gTW/KzKEp6MHYXx3xg6/Jg1bbUib7dZO3ex23xNAcK70o9AtoGsnEnZD+ilsdo96BUe5lODAy/szfA9J2EQJ/RR2EdRjExW4PWHbh1bY5HkkbIA8j4ahHrt7dO1E97EJKyFhE1ZCwiashIRNWEmusMnzSNwyucImzyPRBaZ0lCts8jwSXWBMR2eJ8paTnrkqPHtjNuMV/u+O+boA47PLy0WZ+Iy9srNl2U223UySrrsoBgx1VjJJavYyub2H60XxGrtnLwwx1rr68oj2k64nHXP1GGW5Um3ouXhcSZnY5fU6YutnqSXs1AEGbmrn9zqFm65RTZGuuywG1YQNYy/ensWMizn5IBVTPWI/rB6xFfti4HK8Y7Efdaq/0EORR+tnpwrEfY5x22jda3Ski0GtuyLkeeyepjFgXsdo+yHze7lL2CYfWOOZpNt9RHN66JkkYRPN6aFnkoRtDaJXPMZ5CfNA7sw52TP03TNpTNjkeeyaAcyXmOtGzzThHsgXc072DH33TNKw1Ya02W79jEn/HDi6diJhN8ROYd+WZ5KE3QJ2CrsI6rHvgvsTdv/QCps8j4QNkOfRMNRjd4+uneg+NmElJGzCSkjYhJWQsAkrIWETVpIrbBPeM/JBmuVeYmLiGHOFbcJ7Rj5Is9xLTIwc41mSvM3xnoWKxy1rJ4ptQtIG5Hr6OiyE/X1tkdTdZkyw7gJ/op7Ihqbsn20nSwXF9Zr0PbJ1s2iELdB5HuNl1qDYkOrBcMtbxs92Dz5IXaOaov2YRHXk+BNzEcLui+/xemFnDwS5KMdvnYufxX8bUvcAb5HOhG0iJpo6cA3ZG8tFLZp1VCNwab3ivSp8lbq60cWg2l0Rbv3xYTWZwES+2NTCMXzwuA/+0YXnnoz4sp7WYqL6E2vQM99jNWHzg3ZheTjAQb7wS5FMbn/awMp3wXWOKUsQ0SKtxSTjT6xKz3yP1YQtfWwf8S2YE+zjWzJiTm8n2MJ2uwRn8drLmVqtw0RMyvyJJfTa98gTEkR5K+B5knJlmroCxxwIr7JZFiSuuJNs6vIiQanDQi7azSD/JiZ4oXftXRHPU+6KyPpjiuuNnj41ZtuP8aJXFUhN3bB6stCw1Ybc57DVfrlodO1Ewm6IvcK+Hd8jCbsF7BV2EdRjW899CrtfaIVNnkfCBsjzaBjqsbtH107V7mMTxI1BwiashIRNWAkJm7CS6sJmv+/TI4I7hv1owh7N2yQOJ9hgHTPLA9laj01+R/PwgUROAOdz8jzpe6GunloTNvkdzRN+f8F4NJRL90VdPeULG1MPcdqTA8GzYwrj8glfZzKLhiGKUx0b9P6lPpn+FJ1GxTY0nXU99rOabZotuxi3inGaidhdlOfGtgj2MztLcZT9om7SGY+6T1me2u0M092kTBxSjp7KOEuUt0jkWYvGGUpPW2aoYzIyUqyvWoXS9p5MfSl/3m2TbjezZOuu3qa6sig+oowNM42Hkaq2LlZeEls9Yh/J8NV/54PUxUAv7OxOGLrPJCGf3TW949SyZtuiA70lOhN2UZsWxAoLNULN72h0sdWjfnkk/8gHqYuBPhUptfngCWIvThsTPGWs12tYXY5vTCjz5xH1KWrTCvErolZsi+jQB6kXdtkBYQ72+gSwxC/L4cDsR1tYOrJMR5k/j6hPUZuWCqqAurEtokMfpF7YF541NmfgIv8g8UKFWd5yKfTnEVdR1Kaa+F1977osthl644PkCQmivBVgTqQ+5ccL0jlS4lkb8yTfy+ZAPKdi20c5FuZQUX1sO+nPu3Uu2s0g2bov8syiNr0oiyJXnmOXxlaLyJG78EGybbLQsNWGtNlutxUTdruvG1eNrp1I2A25L2Gze9T980GSsFvgvoRdBPXYVkHC7h6tsMnzSNgAeR4NQz129+jaqbXRfQTRJSRswkpI2ISVkLAJK8kV9mm/ITPAFTBDALuYUV8TOT6ClUXvOWx8BJZXHcNRGhNeX8WB+JaTK+zwYwH+R/UhKORxTBh7Ib9Kj176UYwn/nB2wHWr/qBRNyb3TK6wp1sMSo2fkMjjWI/9bAgLJ6g1dLduTO6ZXGGnT5vRsEfVsxb55K70pN0xpw0zBbgQ1BSpLpVR/YUXvlQtZd5EGeuNLL/R5zTUunj0V2t4fBMD2s+BA/5ijQ0ygPnhDIEbnYLv79EAWcQXXIoGOwBVi/C9BpGBNG0nkcocX2Tac3iDR0xVqjpn/NUPvGHczucQAseHp4yA/d0HPL9j3Td6hqglbHeJwYjOnNNncOEIP5RWX5DOsQ+QyjZGI3BQfrvPhg13+oTdlwvLuPIBTN+8ys4ZdzkXg/nZds/YK/kfqTOtiHX1NKlv1BI2YYLfsA09AOzVG53lG/oaUzSxkvUUEnYXDObw7o3Bf2pwPWJSjCa/JD2BhN0Rg/kBr0swt1V8frWo60vNkOtNtARjwmb5HTu90l2R6ky3AbhfC3hNXV1WBS/a3z1wdvJCdbKGn+caOfboB9b8rsgQno4ehJbdRqRhqw1ps93aqbs7p0tb6NqJhN2Qfgqb3YO+jTkaTUDCboF+CrsI6rGJCtyesO1DK2zyPBI2QJ5Hw1CP3T26dqL72ISVkLAJKyFhE1ZCwiaspGNhRwYGuWgQNpg/qfcEe2VSn+xkQeqkPpPUwbDjy4ynLqFNzyNRHUt77D2sFw48yx8gTptXePIdCEIxsP7lqIzPQHG9Lo7wwsrCABz/SRHaAH6/ACzW9ZTXlueRqI6dwt5/gK+MVuPzI3pv0iTBxDqGr90n77VPnzv4cpfCDDCYghhznwh5gMoeZwbhm+AazyNRHY2wNemBauuPfXa6OQDltlm/XGtzDur3x4ZhqhN9MhPshYCcR+4gyU4KOmSz/Rx/kn3EU2LIZQNc53lkP4UXxIUv6uZJlOTOCalrw0gDhuISH4+aEmbryzu+K8FTJUd5e+bz7ylzOSTLYqqFpCg77YNYFlMwRHMwiM/iqR6MzjmYv79knSyiXByP+l7C9p+ZYqLOVGxsXfZZ8lKnwMB6XPc8rjjHZbputd0k6hRz2enmUvMkZv5OHoPoGPLbMDWVxlVxSeIq2oVtE3+Qri/3+MrJxoChFXa6kbIHnXA5B6Bm3WyDp9DVnf9HVdpfwfYM3sCxcDMNyjAg7Lx1RZnHBZq3jkotYcty7TyJmhgkx6lrQ/NxyXaWqWMqPL5ydMLW59jq6VeaRuMLsbpzAPZlzkEkTgEOiZH1MTPV2+mnwQ4qYcjzeEHBPIk8BjlzQl6Jybi0cXw5F48DmC9dYR/iF1fyQgzzqtpzAPZkzkEm6uHCgSDzeAiWU399Jw/kYDl3lH+3hgnPo468eRKL5oS8BoNx4Zg+PiT/rgh7vIL/AWsMtBt111mqzAH4z+ccZLO9foGi1UTUmmd5iLseK9G7yfrTf+8JWCfuPJqVen3Po5jF9hg/74J5HLHTkUtMbLnzJMZnYGVbk4+kqxSXAlo4voLbfezWlw8+nrrjOGNPs3SP8MRPQXjKWAOMMLErhnnzgsSb9zCEnRNUu3d75f5YepEIgN3TZuFHEQ2jq272kr0l7z0d2LGy4RMc3eyxsdljx6DcODFGPc+jOIsKXykeK/c44pdSlvK2cnYw5G2F5ZgbeEH0RRYxgFUSg9X3CH7HD4mpyVVxKcLw8SF2DlvF/O9hNYIwzqUbwHrCV4D3nLrabDerYtIiunYq6LFvmOkbeLCDpg9bYrBHGsDL7+ZfEOKfYqew2alt+YJZRFNls+09eKdfB28OctA0hFKR7tG1E3keCSvI9Tz+/fsXfv36xT8kqtNmu1FMqqFrJ0tzbOLeIWETFgLwf7SWgOUtEwMaAAAAAElFTkSuQmCC;" vertex="1" parent="1">
          <mxGeometry x="425" y="600" width="182" height="148" as="geometry" />
        </mxCell>
        <mxCell id="tNGQDIPSwEXz_14fNPYn-231" value="" style="endArrow=none;html=1;rounded=0;fontFamily=Helvetica;fontSize=12;fontColor=default;" edge="1" parent="1">
          <mxGeometry width="50" height="50" relative="1" as="geometry">
            <mxPoint x="456" y="480" as="sourcePoint" />
            <mxPoint x="456" y="360" as="targetPoint" />
            <Array as="points">
              <mxPoint x="400" y="480" />
              <mxPoint x="399.5" y="360" />
            </Array>
          </mxGeometry>
        </mxCell>
        <mxCell id="tNGQDIPSwEXz_14fNPYn-232" value="" style="endArrow=none;html=1;rounded=0;fontFamily=Helvetica;fontSize=12;fontColor=default;entryX=-0.028;entryY=0.61;entryDx=0;entryDy=0;entryPerimeter=0;exitX=1.001;exitY=0.373;exitDx=0;exitDy=0;exitPerimeter=0;" edge="1" parent="1" source="tNGQDIPSwEXz_14fNPYn-220" target="tNGQDIPSwEXz_14fNPYn-228">
          <mxGeometry width="50" height="50" relative="1" as="geometry">
            <mxPoint x="610" y="550" as="sourcePoint" />
            <mxPoint x="660" y="500" as="targetPoint" />
            <Array as="points">
              <mxPoint x="620" y="480" />
              <mxPoint x="620" y="350" />
            </Array>
          </mxGeometry>
        </mxCell>
        <mxCell id="tNGQDIPSwEXz_14fNPYn-233" value="" style="endArrow=none;html=1;rounded=0;fontFamily=Helvetica;fontSize=12;fontColor=default;exitX=0.997;exitY=0.904;exitDx=0;exitDy=0;exitPerimeter=0;entryX=-0.002;entryY=0.412;entryDx=0;entryDy=0;entryPerimeter=0;" edge="1" parent="1" source="tNGQDIPSwEXz_14fNPYn-228" target="tNGQDIPSwEXz_14fNPYn-227">
          <mxGeometry width="50" height="50" relative="1" as="geometry">
            <mxPoint x="821" y="390.5" as="sourcePoint" />
            <mxPoint x="891.7106781186548" y="340.5" as="targetPoint" />
            <Array as="points">
              <mxPoint x="870" y="374" />
              <mxPoint x="870" y="334" />
            </Array>
          </mxGeometry>
        </mxCell>
        <mxCell id="tNGQDIPSwEXz_14fNPYn-234" value="" style="endArrow=none;html=1;rounded=0;fontFamily=Helvetica;fontSize=12;fontColor=default;entryX=-0.013;entryY=0.838;entryDx=0;entryDy=0;entryPerimeter=0;exitX=1;exitY=0.25;exitDx=0;exitDy=0;" edge="1" parent="1" source="tNGQDIPSwEXz_14fNPYn-224" target="tNGQDIPSwEXz_14fNPYn-227">
          <mxGeometry width="50" height="50" relative="1" as="geometry">
            <mxPoint x="900" y="500" as="sourcePoint" />
            <mxPoint x="950" y="450" as="targetPoint" />
            <Array as="points">
              <mxPoint x="900" y="460" />
              <mxPoint x="900" y="370" />
            </Array>
          </mxGeometry>
        </mxCell>
        <mxCell id="tNGQDIPSwEXz_14fNPYn-235" value="" style="endArrow=none;html=1;rounded=0;fontFamily=Helvetica;fontSize=12;fontColor=default;exitX=1;exitY=0.75;exitDx=0;exitDy=0;entryX=0.994;entryY=0.401;entryDx=0;entryDy=0;entryPerimeter=0;" edge="1" parent="1" source="tNGQDIPSwEXz_14fNPYn-229" target="tNGQDIPSwEXz_14fNPYn-227">
          <mxGeometry width="50" height="50" relative="1" as="geometry">
            <mxPoint x="1070" y="590" as="sourcePoint" />
            <mxPoint x="1120" y="540" as="targetPoint" />
            <Array as="points">
              <mxPoint x="1120" y="500" />
              <mxPoint x="1120" y="333" />
            </Array>
          </mxGeometry>
        </mxCell>
        <mxCell id="tNGQDIPSwEXz_14fNPYn-236" value="" style="endArrow=none;html=1;rounded=0;fontFamily=Helvetica;fontSize=12;fontColor=default;exitX=0.993;exitY=0.38;exitDx=0;exitDy=0;exitPerimeter=0;" edge="1" parent="1" source="tNGQDIPSwEXz_14fNPYn-219">
          <mxGeometry width="50" height="50" relative="1" as="geometry">
            <mxPoint x="340" y="590" as="sourcePoint" />
            <mxPoint x="460" y="520" as="targetPoint" />
            <Array as="points">
              <mxPoint x="370" y="690" />
              <mxPoint x="360" y="520" />
            </Array>
          </mxGeometry>
        </mxCell>
        <mxCell id="tNGQDIPSwEXz_14fNPYn-237" value="" style="endArrow=none;html=1;rounded=0;fontFamily=Helvetica;fontSize=12;fontColor=default;exitX=0;exitY=0.25;exitDx=0;exitDy=0;" edge="1" parent="1" source="tNGQDIPSwEXz_14fNPYn-230">
          <mxGeometry width="50" height="50" relative="1" as="geometry">
            <mxPoint x="350" y="680" as="sourcePoint" />
            <mxPoint x="460" y="490" as="targetPoint" />
            <Array as="points">
              <mxPoint x="380" y="630" />
              <mxPoint x="380" y="490" />
              <mxPoint x="420" y="490" />
            </Array>
          </mxGeometry>
        </mxCell>
        <mxCell id="tNGQDIPSwEXz_14fNPYn-238" value="" style="endArrow=none;html=1;rounded=0;fontFamily=Helvetica;fontSize=12;fontColor=default;exitX=1;exitY=0.75;exitDx=0;exitDy=0;entryX=0.992;entryY=0.417;entryDx=0;entryDy=0;entryPerimeter=0;" edge="1" parent="1" source="tNGQDIPSwEXz_14fNPYn-230" target="tNGQDIPSwEXz_14fNPYn-220">
          <mxGeometry width="50" height="50" relative="1" as="geometry">
            <mxPoint x="670" y="780" as="sourcePoint" />
            <mxPoint x="720" y="730" as="targetPoint" />
            <Array as="points">
              <mxPoint x="650" y="710" />
              <mxPoint x="650" y="490" />
            </Array>
          </mxGeometry>
        </mxCell>
        <mxCell id="tNGQDIPSwEXz_14fNPYn-239" value="" style="endArrow=none;html=1;rounded=0;fontFamily=Helvetica;fontSize=12;fontColor=default;exitX=0.996;exitY=0.934;exitDx=0;exitDy=0;exitPerimeter=0;entryX=0;entryY=0.25;entryDx=0;entryDy=0;" edge="1" parent="1" source="tNGQDIPSwEXz_14fNPYn-230" target="tNGQDIPSwEXz_14fNPYn-224">
          <mxGeometry width="50" height="50" relative="1" as="geometry">
            <mxPoint x="680" y="800" as="sourcePoint" />
            <mxPoint x="730" y="750" as="targetPoint" />
            <Array as="points">
              <mxPoint x="660" y="740" />
              <mxPoint x="660" y="460" />
            </Array>
          </mxGeometry>
        </mxCell>
        <mxCell id="tNGQDIPSwEXz_14fNPYn-240" value="" style="endArrow=none;html=1;rounded=0;fontFamily=Helvetica;fontSize=12;fontColor=default;exitX=1;exitY=0.5;exitDx=0;exitDy=0;entryX=-0.021;entryY=0.406;entryDx=0;entryDy=0;entryPerimeter=0;" edge="1" parent="1" source="tNGQDIPSwEXz_14fNPYn-223" target="tNGQDIPSwEXz_14fNPYn-220">
          <mxGeometry width="50" height="50" relative="1" as="geometry">
            <mxPoint x="350" y="440" as="sourcePoint" />
            <mxPoint x="400" y="390" as="targetPoint" />
            <Array as="points">
              <mxPoint x="360" y="500" />
              <mxPoint x="360" y="485" />
            </Array>
          </mxGeometry>
        </mxCell>
        <mxCell id="tNGQDIPSwEXz_14fNPYn-241" value="" style="endArrow=none;html=1;rounded=0;fontFamily=Helvetica;fontSize=12;fontColor=default;exitX=-0.001;exitY=0.863;exitDx=0;exitDy=0;exitPerimeter=0;entryX=0;entryY=0.5;entryDx=0;entryDy=0;" edge="1" parent="1" source="tNGQDIPSwEXz_14fNPYn-223" target="tNGQDIPSwEXz_14fNPYn-222">
          <mxGeometry width="50" height="50" relative="1" as="geometry">
            <mxPoint x="160" y="450" as="sourcePoint" />
            <mxPoint x="210" y="400" as="targetPoint" />
            <Array as="points">
              <mxPoint x="120" y="532" />
              <mxPoint x="120" y="340" />
            </Array>
          </mxGeometry>
        </mxCell>
      </root>
    </mxGraphModel>
  </diagram>
</mxfile>
